<svg xmlns="http://www.w3.org/2000/svg" xmlns:xlink="http://www.w3.org/1999/xlink" version="1.1" id="Layer_1" x="0px" y="0px" width="100px" height="100px" viewBox="0 0 100 100" enable-background="new 0 0 100 100" xml:space="preserve">
<path fill-rule="evenodd" clip-rule="evenodd" d="M98.823,75.627c-2.522,1.067-4.94,0.76-7.321-0.25  c-2.819-1.193-5.332-2.911-7.645-4.886c-0.957-0.817-1.573-1.05-2.39,0.131c-2.135,3.089-5.038,4.378-8.857,4.02  c-2.089-0.195-4.237,0.379-6.355,0.327c-1.414-0.032-3.233-0.065-3.146-2.285c0.032-0.791-0.476-0.705-0.898-0.881  c-0.852-0.361-2.166-0.01-2.322-1.47c-0.183-1.672,1.474-1.654,2.55-2.664c-4.666-2.179-9.232-2.047-13.876-0.824  c-2.739,0.72-5.475,1.411-8.328,1.52c-1.146,0.045-1.955-0.113-2.087-1.515c-0.558-5.973-3.697-10.571-7.838-14.658  c-1.728-1.703-3.289-3.574-4.925-5.371c-0.58-0.634-0.986-1.399-0.595-2.206c0.445-0.918,1.233-0.24,1.869-0.168  c4.51,0.498,8.673-0.498,12.363-3.116c1.127-0.802,1.982-1.159,3.222-0.322c2.749,1.859,5.958,2.372,9.13,3.042  c9.676,2.047,19.035,4.807,26.352,12.064c1.745,1.732,2.945,3.639,4.044,5.883c2.797,5.73,6.808,10.493,13.312,12.389  c1.159,0.336,2.342,0.587,3.511,0.886C98.65,75.288,98.68,75.401,98.823,75.627z"/>
<path fill-rule="evenodd" clip-rule="evenodd" d="M18.185,72.476c-0.208,0.547-0.5,1.079-0.612,1.646  c-0.744,3.728-2.403,4.776-6.189,3.889c-0.619-0.146-1.189-0.31-1.292-1.042c-0.079-0.562,0.156-1.03,0.691-1.193  c1.787-0.552,1.735-2.018,1.775-3.445c0.157-5.661,0.456-11.324-2.48-16.542c-1.18-2.095-0.64-4.292,0.014-6.478  c1.47-4.924,0.496-6.139-4.993-6.431c-2.036-0.106-4.692-3.76-3.416-4.861c1.93-1.668,2.953-4.54,5.839-4.973  c1.841-0.277,2.949-0.993,2.493-3.867c4.381,6.347,9.957,10.557,13.485,16.527c1.811,3.067,4.52,5.437,6.981,7.982  c5.191,5.377,8.158,11.493,6.477,19.201c-0.248,1.136-0.247,2.289,1.393,2.44c4.512,0.413,8.989,1.616,13.563,0.443  c2.079-0.535,3.945-1.157,3.807-3.853c-0.024-0.494,0.034-1.049,0.721-1.106c0.72-0.057,1.15,0.419,1.368,0.995  c0.874,2.325,0.129,4.211-1.847,5.535c-2.158,1.45-4.678,2.01-7.222,1.938c-9.306-0.266-18.61-0.649-27.913-1.021  c-1.661-0.064-3.146-0.387-1.254-2.379C21.17,74.201,19.125,73.593,18.185,72.476z"/>
<path fill-rule="evenodd" clip-rule="evenodd" d="M18.138,22.236c2.563,0.067,4.946-0.22,7.305-1.554  c2.282-1.288,8.438,0.948,9.539,3.309c1.215,2.604,4.097,3.931,4.498,7.295c1.023,8.574-0.348,10.168-8.012,11.858  c-1.603,0.354-3.219,0.31-4.835,0.067c-1.343-0.203-2.269-0.715-2.077-2.327c0.083-0.696-0.082-1.416-0.071-2.124  c0.071-4.109-0.398-7.391-5.788-8.022c-3.274-0.386-5.749-2.876-5.976-6.78c-0.075-1.29,0.44-1.661,1.466-1.708  C15.501,22.191,16.82,22.236,18.138,22.236z"/>
</svg>